<svg width="32" height="32" viewBox="0 0 32 32" fill="none" xmlns="http://www.w3.org/2000/svg">
<path d="M27.6131 25.72L23.0798 21.2C24.5424 19.3366 25.336 17.0355 25.3331 14.6667C25.3331 12.557 24.7075 10.4947 23.5354 8.74057C22.3634 6.98645 20.6975 5.61928 18.7484 4.81194C16.7993 4.00461 14.6546 3.79337 12.5855 4.20495C10.5163 4.61652 8.61572 5.63242 7.12396 7.12418C5.6322 8.61594 4.61629 10.5166 4.20472 12.5857C3.79314 14.6548 4.00438 16.7995 4.81171 18.7486C5.61905 20.6977 6.98622 22.3636 8.74035 23.5357C10.4945 24.7077 12.5568 25.3333 14.6664 25.3333C17.0353 25.3363 19.3364 24.5426 21.1998 23.08L25.7198 27.6133C25.8437 27.7383 25.9912 27.8375 26.1537 27.9052C26.3161 27.9729 26.4904 28.0077 26.6664 28.0077C26.8424 28.0077 27.0167 27.9729 27.1792 27.9052C27.3417 27.8375 27.4891 27.7383 27.6131 27.6133C27.7381 27.4894 27.8373 27.3419 27.905 27.1794C27.9726 27.0169 28.0075 26.8427 28.0075 26.6667C28.0075 26.4906 27.9726 26.3164 27.905 26.1539C27.8373 25.9914 27.7381 25.8439 27.6131 25.72ZM6.66643 14.6667C6.66643 13.0844 7.13562 11.5377 8.01467 10.2221C8.89372 8.9065 10.1432 7.88112 11.605 7.27562C13.0668 6.67012 14.6753 6.51169 16.2272 6.82037C17.779 7.12906 19.2045 7.89098 20.3233 9.0098C21.4421 10.1286 22.204 11.5541 22.5127 13.1059C22.8214 14.6578 22.663 16.2663 22.0575 17.7281C21.452 19.1899 20.4266 20.4394 19.111 21.3184C17.7954 22.1975 16.2487 22.6667 14.6664 22.6667C12.5447 22.6667 10.5099 21.8238 9.00957 20.3235C7.50928 18.8232 6.66643 16.7884 6.66643 14.6667Z" fill="white"/>
</svg>
